<mxfile host="app.diagrams.net" agent="Mozilla/5.0 (X11; Linux x86_64; rv:134.0) Gecko/20100101 Firefox/134.0" version="26.0.7">
  <diagram name="Page-1" id="f_uSJH0qzkEccPhL8JFl">
    <mxGraphModel dx="1122" dy="651" grid="1" gridSize="10" guides="1" tooltips="1" connect="1" arrows="1" fold="1" page="1" pageScale="1" pageWidth="850" pageHeight="1100" math="0" shadow="0">
      <root>
        <mxCell id="0" />
        <mxCell id="1" parent="0" />
        <mxCell id="Ke53fSFV2BdHBJfwpigo-23" value="User" style="swimlane;" parent="1" vertex="1">
          <mxGeometry x="190" y="40" width="360" height="590" as="geometry" />
        </mxCell>
        <mxCell id="Ke53fSFV2BdHBJfwpigo-24" value="" style="ellipse;html=1;shape=startState;fillColor=#000000;strokeColor=#ff0000;" parent="Ke53fSFV2BdHBJfwpigo-23" vertex="1">
          <mxGeometry x="164.75" y="30" width="30" height="30" as="geometry" />
        </mxCell>
        <mxCell id="Ke53fSFV2BdHBJfwpigo-25" value="" style="edgeStyle=orthogonalEdgeStyle;html=1;verticalAlign=bottom;endArrow=open;endSize=8;strokeColor=#ff0000;rounded=0;entryX=0.5;entryY=0;entryDx=0;entryDy=0;" parent="Ke53fSFV2BdHBJfwpigo-23" source="Ke53fSFV2BdHBJfwpigo-24" target="Ke53fSFV2BdHBJfwpigo-26" edge="1">
          <mxGeometry relative="1" as="geometry">
            <mxPoint x="179.75" y="130" as="targetPoint" />
          </mxGeometry>
        </mxCell>
        <mxCell id="Ke53fSFV2BdHBJfwpigo-26" value="Click on login button" style="rounded=1;whiteSpace=wrap;html=1;arcSize=50;fontColor=#000000;fillColor=#ffffc0;strokeColor=#ff0000;" parent="Ke53fSFV2BdHBJfwpigo-23" vertex="1">
          <mxGeometry x="120" y="110" width="120" height="40" as="geometry" />
        </mxCell>
        <mxCell id="Ke53fSFV2BdHBJfwpigo-27" value="" style="edgeStyle=orthogonalEdgeStyle;html=1;verticalAlign=bottom;endArrow=open;endSize=8;strokeColor=#ff0000;rounded=0;entryX=0.5;entryY=0;entryDx=0;entryDy=0;" parent="Ke53fSFV2BdHBJfwpigo-23" source="Ke53fSFV2BdHBJfwpigo-26" target="Ke53fSFV2BdHBJfwpigo-28" edge="1">
          <mxGeometry relative="1" as="geometry">
            <mxPoint x="179.75" y="260" as="targetPoint" />
            <Array as="points" />
          </mxGeometry>
        </mxCell>
        <mxCell id="Ke53fSFV2BdHBJfwpigo-28" value="Enter 12 random words" style="rounded=1;whiteSpace=wrap;html=1;arcSize=40;fontColor=#000000;fillColor=#ffffc0;strokeColor=#ff0000;" parent="Ke53fSFV2BdHBJfwpigo-23" vertex="1">
          <mxGeometry x="120" y="180" width="120" height="40" as="geometry" />
        </mxCell>
        <mxCell id="Ke53fSFV2BdHBJfwpigo-29" value="" style="edgeStyle=orthogonalEdgeStyle;html=1;verticalAlign=bottom;endArrow=open;endSize=8;strokeColor=#ff0000;rounded=0;entryX=0.5;entryY=0;entryDx=0;entryDy=0;" parent="Ke53fSFV2BdHBJfwpigo-23" source="Ke53fSFV2BdHBJfwpigo-28" target="Ke53fSFV2BdHBJfwpigo-30" edge="1">
          <mxGeometry relative="1" as="geometry">
            <mxPoint x="180" y="360" as="targetPoint" />
            <Array as="points" />
          </mxGeometry>
        </mxCell>
        <mxCell id="Ke53fSFV2BdHBJfwpigo-30" value="generate private and public key from words" style="rounded=1;whiteSpace=wrap;html=1;arcSize=40;fontColor=#000000;fillColor=#ffffc0;strokeColor=#ff0000;" parent="Ke53fSFV2BdHBJfwpigo-23" vertex="1">
          <mxGeometry x="120" y="260" width="120" height="40" as="geometry" />
        </mxCell>
        <mxCell id="Ke53fSFV2BdHBJfwpigo-31" value="" style="ellipse;html=1;shape=endState;fillColor=#000000;strokeColor=#ff0000;" parent="Ke53fSFV2BdHBJfwpigo-23" vertex="1">
          <mxGeometry x="150" y="535" width="30" height="30" as="geometry" />
        </mxCell>
        <mxCell id="Ke53fSFV2BdHBJfwpigo-32" value="server" style="swimlane;" parent="1" vertex="1">
          <mxGeometry x="550" y="40" width="350" height="590" as="geometry" />
        </mxCell>
        <mxCell id="Ke53fSFV2BdHBJfwpigo-33" value="Find Peers who claim to store the public key" style="rounded=1;whiteSpace=wrap;html=1;arcSize=40;fontColor=#000000;fillColor=#ffffc0;strokeColor=#ff0000;" parent="Ke53fSFV2BdHBJfwpigo-32" vertex="1">
          <mxGeometry x="115" y="160" width="120" height="40" as="geometry" />
        </mxCell>
        <mxCell id="Ke53fSFV2BdHBJfwpigo-34" value="" style="edgeStyle=orthogonalEdgeStyle;html=1;verticalAlign=bottom;endArrow=open;endSize=8;strokeColor=#ff0000;rounded=0;entryX=0.5;entryY=0;entryDx=0;entryDy=0;" parent="Ke53fSFV2BdHBJfwpigo-32" source="Ke53fSFV2BdHBJfwpigo-33" target="Ke53fSFV2BdHBJfwpigo-35" edge="1">
          <mxGeometry relative="1" as="geometry">
            <mxPoint x="220" y="370" as="targetPoint" />
          </mxGeometry>
        </mxCell>
        <mxCell id="Ke53fSFV2BdHBJfwpigo-35" value="Broadcast the key to all peers" style="rounded=1;whiteSpace=wrap;html=1;arcSize=40;fontColor=#000000;fillColor=#ffffc0;strokeColor=#ff0000;" parent="Ke53fSFV2BdHBJfwpigo-32" vertex="1">
          <mxGeometry x="115" y="280" width="120" height="40" as="geometry" />
        </mxCell>
        <mxCell id="Ke53fSFV2BdHBJfwpigo-36" value="validate the cliam" style="rounded=1;whiteSpace=wrap;html=1;arcSize=40;fontColor=#000000;fillColor=#ffffc0;strokeColor=#ff0000;" parent="Ke53fSFV2BdHBJfwpigo-32" vertex="1">
          <mxGeometry x="120" y="370" width="120" height="40" as="geometry" />
        </mxCell>
        <mxCell id="i1c0EMQiUV4TKI6V52WX-1" value="Add User as a New Peer in DataBase" style="rounded=1;whiteSpace=wrap;html=1;arcSize=40;fontColor=#000000;fillColor=#ffffc0;strokeColor=#ff0000;" vertex="1" parent="Ke53fSFV2BdHBJfwpigo-32">
          <mxGeometry x="120" y="530" width="120" height="40" as="geometry" />
        </mxCell>
        <mxCell id="Ke53fSFV2BdHBJfwpigo-46" value="" style="edgeStyle=orthogonalEdgeStyle;html=1;verticalAlign=bottom;endArrow=open;endSize=8;strokeColor=#ff0000;rounded=0;entryX=0.5;entryY=0;entryDx=0;entryDy=0;" parent="Ke53fSFV2BdHBJfwpigo-32" source="Ke53fSFV2BdHBJfwpigo-36" target="i1c0EMQiUV4TKI6V52WX-1" edge="1">
          <mxGeometry relative="1" as="geometry">
            <mxPoint x="180" y="530" as="targetPoint" />
          </mxGeometry>
        </mxCell>
        <mxCell id="Ke53fSFV2BdHBJfwpigo-37" value="Peers" style="swimlane;" parent="1" vertex="1">
          <mxGeometry x="900" y="40" width="350" height="590" as="geometry" />
        </mxCell>
        <mxCell id="Ke53fSFV2BdHBJfwpigo-38" value="does Exit?" style="rhombus;whiteSpace=wrap;html=1;fontColor=#000000;fillColor=#ffffc0;strokeColor=#ff0000;" parent="Ke53fSFV2BdHBJfwpigo-37" vertex="1">
          <mxGeometry x="135" y="380" width="80" height="40" as="geometry" />
        </mxCell>
        <mxCell id="Ke53fSFV2BdHBJfwpigo-39" value="no" style="edgeStyle=orthogonalEdgeStyle;html=1;align=left;verticalAlign=bottom;endArrow=open;endSize=8;strokeColor=#ff0000;rounded=0;" parent="Ke53fSFV2BdHBJfwpigo-37" source="Ke53fSFV2BdHBJfwpigo-38" edge="1">
          <mxGeometry x="-1" relative="1" as="geometry">
            <mxPoint x="270" y="310" as="targetPoint" />
          </mxGeometry>
        </mxCell>
        <mxCell id="Ke53fSFV2BdHBJfwpigo-40" value="yes" style="edgeStyle=orthogonalEdgeStyle;html=1;align=left;verticalAlign=top;endArrow=open;endSize=8;strokeColor=#ff0000;rounded=0;" parent="Ke53fSFV2BdHBJfwpigo-37" source="Ke53fSFV2BdHBJfwpigo-38" edge="1">
          <mxGeometry x="-1" relative="1" as="geometry">
            <mxPoint x="175" y="470" as="targetPoint" />
          </mxGeometry>
        </mxCell>
        <mxCell id="Ke53fSFV2BdHBJfwpigo-41" value="claim that the user exists" style="rounded=1;whiteSpace=wrap;html=1;arcSize=40;fontColor=#000000;fillColor=#ffffc0;strokeColor=#ff0000;" parent="Ke53fSFV2BdHBJfwpigo-37" vertex="1">
          <mxGeometry x="115" y="460" width="120" height="40" as="geometry" />
        </mxCell>
        <mxCell id="Ke53fSFV2BdHBJfwpigo-42" value="Ignore the Message" style="rounded=1;whiteSpace=wrap;html=1;arcSize=40;fontColor=#000000;fillColor=#ffffc0;strokeColor=#ff0000;" parent="Ke53fSFV2BdHBJfwpigo-37" vertex="1">
          <mxGeometry x="200" y="260" width="120" height="40" as="geometry" />
        </mxCell>
        <mxCell id="Ke53fSFV2BdHBJfwpigo-43" value="" style="edgeStyle=orthogonalEdgeStyle;html=1;verticalAlign=bottom;endArrow=open;endSize=8;strokeColor=#ff0000;rounded=0;exitX=1;exitY=0.5;exitDx=0;exitDy=0;entryX=0;entryY=0.5;entryDx=0;entryDy=0;" parent="1" source="Ke53fSFV2BdHBJfwpigo-30" target="Ke53fSFV2BdHBJfwpigo-33" edge="1">
          <mxGeometry relative="1" as="geometry">
            <mxPoint x="370" y="550" as="targetPoint" />
            <mxPoint x="430" y="420" as="sourcePoint" />
          </mxGeometry>
        </mxCell>
        <mxCell id="Ke53fSFV2BdHBJfwpigo-44" value="" style="edgeStyle=orthogonalEdgeStyle;html=1;verticalAlign=bottom;endArrow=open;endSize=8;strokeColor=#ff0000;rounded=0;" parent="1" source="Ke53fSFV2BdHBJfwpigo-35" edge="1">
          <mxGeometry relative="1" as="geometry">
            <mxPoint x="1030" y="440" as="targetPoint" />
          </mxGeometry>
        </mxCell>
        <mxCell id="Ke53fSFV2BdHBJfwpigo-45" value="" style="edgeStyle=orthogonalEdgeStyle;html=1;verticalAlign=bottom;endArrow=open;endSize=8;strokeColor=#ff0000;rounded=0;entryX=1;entryY=0.5;entryDx=0;entryDy=0;" parent="1" source="Ke53fSFV2BdHBJfwpigo-41" edge="1" target="Ke53fSFV2BdHBJfwpigo-36">
          <mxGeometry relative="1" as="geometry">
            <mxPoint x="790" y="520" as="targetPoint" />
          </mxGeometry>
        </mxCell>
        <mxCell id="i1c0EMQiUV4TKI6V52WX-2" value="" style="edgeStyle=orthogonalEdgeStyle;html=1;verticalAlign=bottom;endArrow=open;endSize=8;strokeColor=#ff0000;rounded=0;exitX=0;exitY=0.5;exitDx=0;exitDy=0;entryX=1;entryY=0.5;entryDx=0;entryDy=0;" edge="1" source="i1c0EMQiUV4TKI6V52WX-1" parent="1" target="Ke53fSFV2BdHBJfwpigo-31">
          <mxGeometry relative="1" as="geometry">
            <mxPoint x="720" y="680" as="targetPoint" />
            <mxPoint x="730" y="610" as="sourcePoint" />
            <Array as="points">
              <mxPoint x="380" y="590" />
            </Array>
          </mxGeometry>
        </mxCell>
      </root>
    </mxGraphModel>
  </diagram>
</mxfile>
